<svg xmlns="http://www.w3.org/2000/svg" xmlns:xlink="http://www.w3.org/1999/xlink" version="1.1" x="0px" y="0px" viewBox="0 0 16.607 9.65" enable-background="new 0 0 16.607 9.65" xml:space="preserve"><style>.style0{clip-rule:	evenodd;fill-rule:	evenodd;}</style><path d="M11.813 9.318h-7c-2.485 0-4.5-2.015-4.5-4.501c0-2.485 2.015-4.5 4.5-4.5h7 c2.485 0 4.5 2 4.5 4.5C16.313 7.3 14.3 9.3 11.8 9.318z M11.813 1.318h-7c-1.933 0-3.5 1.567-3.5 3.5 s1.567 3.5 3.5 3.5h7c1.933 0 3.5-1.567 3.5-3.5S13.747 1.3 11.8 1.318z M11.005 7.319l-0.692-0.692l3.31-2.31l0.692 0.7 L11.005 7.319z M9.312 4.626l3.309-2.309l0.693 0.692l-3.31 2.31L9.312 4.626z M5.313 7.318h-1v-2h-2v-1h2v-2h1v2h2v1h-2V7.318z" class="style0"/><g></g><g></g><g></g><g></g><g></g><g></g><g></g><g></g><g></g><g></g><g></g><g></g><g></g><g></g><g></g></svg>