<svg xmlns="http://www.w3.org/2000/svg" xmlns:xlink="http://www.w3.org/1999/xlink" version="1.1" x="0px" y="0px" viewBox="0 0 36.482 50.549" enable-background="new 0 0 36.482 50.549" xml:space="preserve"><style>.style0{stroke-linejoin:	round;stroke:	#231F20;stroke-linecap:	round;stroke-miterlimit:	10;stroke-width:	2;fill:	none;}.style1{stroke-width:	2;stroke:	#231F20;stroke-linecap:	round;stroke-miterlimit:	10;fill:	none;}.style2{fill:	#231F20;}</style><g><path d=" M34.4 48.239l-5-7v-9.117c0-3.389-3.162-5.078-7-8.352" class="style0"/><path d="M25.4 36.239l-5.5-5.5 c-0.828-0.829-2.172-0.829-3 0c-0.828 0.828-0.828 2.2 0 3l4.5 6.5v3.077c0 1.2 0.4 2.5 1.1 3.487l1.053 1.5" class="style1"/><path d="M16.4 44.239h-11 c-1.65 0-3-1.35-3-3v-22c0-1.65 1.35-3 3-3h14c1.65 0 3 1.4 3 3v9.996" class="style1"/><g><path d="M8.4 21.239c-0.553 0-1 0.448-1 1c0 0.6 0.4 1 1 1s1-0.449 1-1C9.4 21.7 9 21.2 8.4 21.2 L8.4 21.239z" class="style2"/></g><g><path d="M12.4 21.239c-0.553 0-1 0.448-1 1c0 0.6 0.4 1 1 1s1-0.449 1-1 C13.4 21.7 13 21.2 12.4 21.239L12.4 21.239z" class="style2"/></g><g><path d="M16.4 21.239c-0.553 0-1 0.448-1 1c0 0.6 0.4 1 1 1c0.553 0 1-0.449 1-1 C17.4 21.7 17 21.2 16.4 21.239L16.4 21.239z" class="style2"/></g><g><path d="M8.4 25.239c-0.553 0-1 0.448-1 1c0 0.6 0.4 1 1 1s1-0.449 1-1C9.4 25.7 9 25.2 8.4 25.2 L8.4 25.239z" class="style2"/></g><g><path d="M8.4 29.239c-0.553 0-1 0.448-1 1c0 0.6 0.4 1 1 1s1-0.449 1-1C9.4 29.7 9 29.2 8.4 29.2 L8.4 29.239z" class="style2"/></g><g><path d="M8.4 33.239c-0.553 0-1 0.448-1 1c0 0.6 0.4 1 1 1s1-0.449 1-1C9.4 33.7 9 33.2 8.4 33.2 L8.4 33.239z" class="style2"/></g><g><path d="M8.4 37.239c-0.553 0-1 0.448-1 1c0 0.6 0.4 1 1 1s1-0.449 1-1C9.4 37.7 9 37.2 8.4 37.2 L8.4 37.239z" class="style2"/></g><g><path d="M12.4 25.239c-0.553 0-1 0.448-1 1c0 0.6 0.4 1 1 1s1-0.449 1-1 C13.4 25.7 13 25.2 12.4 25.239L12.4 25.239z" class="style2"/></g><g><path d="M12.4 29.239c-0.553 0-1 0.448-1 1c0 0.6 0.4 1 1 1s1-0.449 1-1 C13.4 29.7 13 29.2 12.4 29.239L12.4 29.239z" class="style2"/></g><g><path d="M12.4 33.239c-0.553 0-1 0.448-1 1c0 0.6 0.4 1 1 1s1-0.449 1-1 C13.4 33.7 13 33.2 12.4 33.239L12.4 33.239z" class="style2"/></g><g><path d="M12.4 37.239c-0.553 0-1 0.448-1 1c0 0.6 0.4 1 1 1s1-0.449 1-1 C13.4 37.7 13 37.2 12.4 37.239L12.4 37.239z" class="style2"/></g><g><path d="M16.4 25.239c-0.553 0-1 0.448-1 1c0 0.6 0.4 1 1 1c0.553 0 1-0.449 1-1 C17.4 25.7 17 25.2 16.4 25.239L16.4 25.239z" class="style2"/></g><path d=" M21.953 5.095c-2.699-1.803-5.939-2.857-9.428-2.857c-3.49 0-6.73 1.054-9.43 2.9" class="style0"/><path d=" M19.734 8.422c-2.063-1.378-4.541-2.184-7.209-2.184S7.379 7 5.3 8.4" class="style0"/><path d=" M17.517 11.75c-1.43-0.954-3.146-1.512-4.992-1.512c-1.848 0-3.564 0.558-4.992 1.5" class="style0"/></g></svg>