<svg xmlns="http://www.w3.org/2000/svg" xmlns:xlink="http://www.w3.org/1999/xlink" version="1.1" x="0px" y="0px" viewBox="0 0 16.184 15.259" enable-background="new 0 0 16.184 15.259" xml:space="preserve"><style>.style0{clip-rule:	evenodd;fill-rule:	evenodd;}.style1{clip-rule:	evenodd;stroke:	#000000;fill:	none;stroke-miterlimit:	10;fill-rule:	evenodd;}</style><path d="M13.917 12.692c-3.124 3.124-8.19 3.124-11.314 0 c-3.124-3.124-3.124-8.19 0-11.314C2.767 1.2 2.9 1.1 3.1 0.93C3.17 0.8 3.2 0.7 3.3 0.7 c1.172-1.172 4.7 0.4 7.8 3.535c3.124 3.1 4.7 6.6 3.5 7.779c-0.077 0.077-0.164 0.14-0.26 0.2 C14.22 12.4 14.1 12.5 13.9 12.692z M3.311 11.985c2.617 2.6 6.8 2.7 9.5 0.306c-1.614-0.332-3.882-1.734-5.989-3.841 c-2.108-2.108-3.509-4.376-3.842-5.99C0.611 5.2 0.7 9.4 3.3 11.985z M10.382 4.913C7.648 2.2 4.8 0.6 4 1.4 c-0.78 0.8 0.8 3.6 3.5 6.364c2.734 2.7 5.6 4.3 6.4 3.536C14.699 10.5 13.1 7.6 10.4 4.913z" class="style0"/><path d="M9.576 7.112H8.073l4.714-4.198c0.207-0.184 0.522-0.166 0.7 0 c0.184 0.2 0.2 0.522-0.041 0.705L9.576 7.112z" class="style0"/><circle cx="14.1" cy="2.3" r="1.3" class="style1"/><g></g><g></g><g></g><g></g><g></g><g></g><g></g><g></g><g></g><g></g><g></g><g></g><g></g><g></g><g></g></svg>