<svg xmlns="http://www.w3.org/2000/svg" xmlns:xlink="http://www.w3.org/1999/xlink" version="1.1" x="0px" y="0px" viewBox="0 0 16.521 16.438" enable-background="new 0 0 16.521 16.438" xml:space="preserve"><style>.style0{clip-rule:	evenodd;fill-rule:	evenodd;}</style><path d="M15.282 16.216h-14c-0.553 0-1-0.448-1-1v-14c0-0.552 0.447-1 1-1h14 c0.552 0 1 0.4 1 1v14C16.282 15.8 15.8 16.2 15.3 16.216z M15.282 1.716c0-0.276-0.225-0.5-0.5-0.5h-13 c-0.276 0-0.5 0.224-0.5 0.5v13c0 0.3 0.2 0.5 0.5 0.5h13c0.275 0 0.5-0.224 0.5-0.5V1.716z M13.282 13.216h1v1h-1V13.216z M8.282 14.216c-3.315 0-6-2.686-6-6c0-3.313 2.686-6 6-6c3.313 0 6 2.7 6 6C14.282 11.5 11.6 14.2 8.3 14.216z M8.282 3.216c-2.762 0-5 2.239-5 5c0 2.8 2.2 5 5 5s5-2.239 5-5C13.282 5.5 11 3.2 8.3 3.216z M8.282 11.2 c-1.657 0-3-1.343-3-3c0-1.657 1.343-3 3-3c1.656 0 3 1.3 3 3C11.282 9.9 9.9 11.2 8.3 11.216z M8.282 6.2 c-1.105 0-2 0.895-2 2s0.896 2 2 2s2-0.895 2-2S9.387 6.2 8.3 6.216z M13.282 2.216h1v1h-1V2.216z M2.282 2.216h1v1h-1V2.216z M3.282 14.216h-1v-1h1V14.216z" class="style0"/><g></g><g></g><g></g><g></g><g></g><g></g><g></g><g></g><g></g><g></g><g></g><g></g><g></g><g></g><g></g></svg>