<svg xmlns="http://www.w3.org/2000/svg" xmlns:xlink="http://www.w3.org/1999/xlink" version="1.1" x="0px" y="0px" viewBox="0 0 16.536 16.447" enable-background="new 0 0 16.536 16.447" xml:space="preserve"><style>.style0{clip-rule:	evenodd;fill-rule:	evenodd;}</style><path d="M13.261 16.193h-10c-1.657 0-3-1.342-3-3v-7c0-1.656 1.343-3 3-3h3.135 L3.922 1.078c-0.204-0.205-0.204-0.535 0-0.739c0.204-0.204 0.535-0.204 0.7 0l3.338 2.854h0.524l3.338-2.854 c0.204-0.204 0.535-0.204 0.7 0c0.204 0.2 0.2 0.5 0 0.739l-2.474 2.115h3.135c1.657 0 3 1.3 3 3v7 C16.261 14.9 14.9 16.2 13.3 16.193z M15.261 6.193c0-1.103-0.896-1.999-2-1.999h-10c-1.105 0-2 0.896-2 1.999v7 c0 1.1 0.9 2 2 2h10c1.104 0 2-0.895 2-2V6.193z M12.261 14.193h-8c-1.105 0-2-0.894-2-2v-5c0-1.103 0.895-2 2-2h8 c1.104 0 2 0.9 2 2v5C14.261 13.3 13.4 14.2 12.3 14.193z M13.261 7.193c0-0.552-0.448-1-1-1h-8c-0.552 0-1 0.448-1 1v5 c0 0.6 0.4 1 1 1h8c0.552 0 1-0.446 1-1V7.193z" class="style0"/><g></g><g></g><g></g><g></g><g></g><g></g><g></g><g></g><g></g><g></g><g></g><g></g><g></g><g></g><g></g></svg>