<svg xmlns="http://www.w3.org/2000/svg" xmlns:xlink="http://www.w3.org/1999/xlink" version="1.1" x="0px" y="0px" viewBox="0 0 50 43.297" enable-background="new 0 0 50 43.297" xml:space="preserve"><style>.style0{stroke-linejoin:	round;stroke:	#231F20;stroke-linecap:	round;stroke-miterlimit:	10;stroke-width:	2;fill:	none;}</style><g><path d=" M12 15.809H5c-1.657 0-3 1.344-3 3v6c0 1.7 1.3 3 3 3h7l14 14v-40L12 15.809z" class="style0"/><path d=" M41 5.809c4.403 3.9 7 9.7 7 16c0 6.308-2.597 12.15-7 16" class="style0"/><path d=" M36 9.809c3.334 2.8 6 7.3 6 12c0 4.651-2.677 9.249-6 12" class="style0"/><path d=" M32 14.809c2.25 1.6 4 4 4 7c0 2.996-1.748 5.364-4 7" class="style0"/></g><g></g><g></g><g></g><g></g><g></g><g></g><g></g><g></g><g></g><g></g><g></g><g></g><g></g><g></g><g></g></svg>
