<svg xmlns="http://www.w3.org/2000/svg" xmlns:xlink="http://www.w3.org/1999/xlink" version="1.1" x="0px" y="0px" viewBox="0 0 29.369 29.197" enable-background="new 0 0 29.369 29.197" xml:space="preserve"><style>.style0{fill:	#50BAE2;}.style1{fill:	#FFFFFF;}</style><circle cx="14.8" cy="14.7" r="14" class="style0"/><g><path d="M12.965 8.628c0.72-0.091 1.46-0.038 2.2 0.172c0.861 0.3 1.7 0.7 2.3 1.4 c0.396 0.4 0.7 0.9 1 1.429c0.389 0.8 0.5 1.7 0.5 2.635c-0.063 0.894-0.385 1.762-0.895 2.5 c0.768 0.8 1.5 1.5 2.3 2.288c0.165 0.2 0.4 0.3 0.4 0.552c0.094 0.2 0.1 0.5 0 0.7 c-0.115 0.26-0.339 0.478-0.614 0.561c-0.323 0.101-0.701 0.013-0.934-0.234c-0.666-0.66-1.326-1.326-1.99-1.988 c-0.192-0.174-0.37-0.362-0.553-0.545c-0.51 0.349-1.077 0.616-1.678 0.762c-1.195 0.293-2.499 0.167-3.597-0.4 c-0.522-0.254-0.999-0.598-1.406-1.011c-0.633-0.647-1.08-1.466-1.317-2.337c-0.24-0.937-0.22-1.941 0.07-2.865 c0.23-0.71 0.601-1.375 1.094-1.935c0.299-0.327 0.638-0.621 1.011-0.861C11.426 9 12.2 8.7 13 8.628z M13.306 10.5 c-0.275 0.027-0.548 0.083-0.808 0.179c-0.533 0.193-1.008 0.538-1.374 0.969c-0.338 0.383-0.586 0.848-0.7 1.3 c-0.073 0.268-0.086 0.548-0.097 0.824c0.014 0.1 0 0.3 0 0.446c0.072 0.6 0.3 1.1 0.6 1.5 c0.33 0.4 0.8 0.8 1.3 1.02c0.537 0.3 1.1 0.3 1.7 0.282c0.663-0.058 1.303-0.336 1.801-0.777 c0.101-0.088 0.202-0.175 0.286-0.28c0.382-0.404 0.664-0.907 0.785-1.451c0.102-0.424 0.115-0.869 0.051-1.3 c-0.076-0.546-0.303-1.07-0.648-1.5c-0.311-0.393-0.702-0.728-1.151-0.953C14.554 10.5 13.9 10.4 13.3 10.504z" class="style1"/></g><g></g><g></g><g></g><g></g><g></g><g></g><g></g><g></g><g></g><g></g><g></g><g></g><g></g><g></g><g></g></svg>
