<svg xmlns="http://www.w3.org/2000/svg" xmlns:xlink="http://www.w3.org/1999/xlink" version="1.1" x="0px" y="0px" viewBox="0 0 16.846 16.616" enable-background="new 0 0 16.846 16.616" xml:space="preserve"><style>.style0{clip-rule:	evenodd;fill-rule:	evenodd;}</style><path d="M15.439 16.317h-2h-1h-8h-1h-2c-0.553 0-1-0.448-1-1v-2v-1v-2v-1v-2v-1v-2v-1 V1.318c0-0.552 0.447-1 1-1h2h1h8h1h2c0.552 0 1 0.4 1 1v1.999v1v2v1v2v1v2v1v2C16.439 15.9 16 16.3 15.4 16.317z M4.439 10.317v2v1v2h8v-2v-1v-2v-1h-8V10.317z M1.439 14.818c0 0.3 0.2 0.5 0.5 0.5h1.5v-2h-2V14.818z M1.439 12.317h2v-2h-2 V12.317z M3.439 1.318h-1.5c-0.276 0-0.5 0.224-0.5 0.5v1.499h2V1.318z M3.439 4.318h-2v2h2V4.318z M3.439 7.317h-2v2h2v-1V7.317z M12.439 6.317v-2v-1V1.318h-8v1.999v1v2v1v1h8v-1V6.317z M15.439 1.818c0-0.276-0.224-0.5-0.5-0.5h-1.5v1.999h2V1.818z M15.439 4.318h-2v2h2V4.318z M15.439 7.317h-2v1v1h2V7.317z M15.439 10.317h-2v2h2V10.317z M15.439 13.318h-2v2h1.5 c0.276 0 0.5-0.224 0.5-0.5V13.318z" class="style0"/><g></g><g></g><g></g><g></g><g></g><g></g><g></g><g></g><g></g><g></g><g></g><g></g><g></g><g></g><g></g></svg>
