<svg xmlns="http://www.w3.org/2000/svg" xmlns:xlink="http://www.w3.org/1999/xlink" version="1.1" x="0px" y="0px" viewBox="0 0 50 46.777" enable-background="new 0 0 50 46.777" xml:space="preserve"><style>.style0{clip-rule:	evenodd;fill-rule:	evenodd;}</style><path d="M42.757 26.695V0.705h-3.229v25.991c-3.683 0.747-6.457 4.004-6.457 7.9 s2.775 7.2 6.5 7.907v3.393h3.229v-3.393c3.683-0.747 6.457-4.003 6.457-7.907S46.44 27.4 42.8 26.695z M41.143 39.4 c-2.674 0-4.843-2.169-4.843-4.843s2.169-4.844 4.843-4.844s4.843 2.2 4.8 4.844S43.816 39.4 41.1 39.447z" class="style0"/><path d="M26.614 4.096V0.705h-3.229v3.391c-3.683 0.749-6.457 4.004-6.457 7.9 s2.775 7.2 6.5 7.909v25.991h3.229V19.914c3.683-0.749 6.457-4.004 6.457-7.909S30.297 4.8 26.6 4.096z M25 16.8 c-2.674 0-4.843-2.168-4.843-4.841c0-2.675 2.169-4.843 4.843-4.843s4.843 2.2 4.8 4.843C29.843 14.7 27.7 16.8 25 16.8 z" class="style0"/><path d="M10.471 20.24V0.705H7.243V20.24c-3.683 0.746-6.457 4.003-6.457 7.9 c0 3.9 2.8 7.2 6.5 7.909v9.848h3.229v-9.848c3.683-0.749 6.457-4.006 6.457-7.909C16.929 24.2 14.2 21 10.5 20.2 z M8.857 32.989c-2.674 0-4.843-2.168-4.843-4.841c0-2.675 2.169-4.843 4.843-4.843s4.843 2.2 4.8 4.8 C13.7 30.8 11.5 33 8.9 32.989z" class="style0"/><g></g><g></g><g></g><g></g><g></g><g></g><g></g><g></g><g></g><g></g><g></g><g></g><g></g><g></g><g></g></svg>
